# xmcd
#
# Track frame offsets:
#	150
#	55016
#	97020
#	129313
#	172857
#	201435
#
# Disc length: 3086 seconds
#
# Revision: 0
# Processed by: cddbd v1.5.2PL0 Copyright (c) Steve Scherf et al.
# Submitted via: audiograbber 1.83.01
#
DISCID=4a0c0c06
DTITLE=Grateful Dead - 93-09-12 The Spectrum, Philadelphia PA
DYEAR=1900
DGENRE=
TTITLE0=Space
TTITLE1=The Other One
TTITLE2=Stella Blue
TTITLE3=Throwing Stones
TTITLE4=Turn On Your Lovelight
TTITLE5=Knocking On Heaven's Door
EXTD=
EXTT0=
EXTT1=
EXTT2=
EXTT3=
EXTT4=
EXTT5=
PLAYORDER=
